<svg width="205" height="111" viewBox="0 0 205 111" fill="none" xmlns="http://www.w3.org/2000/svg">
<rect y="7" width="205" height="104" rx="15" fill="#BD2727"/>
<path d="M55.5078 76.9023H60.4102C63.8086 76.9023 65.5078 78.2663 65.5078 80.9941C65.5078 82.3939 65 83.4648 63.9844 84.207C63.0794 84.8646 61.8392 85.1934 60.2637 85.1934H57.2266V91.6387H55.5078V76.9023ZM57.2266 78.2988V83.8359H60.1855C62.5358 83.8359 63.7109 82.8952 63.7109 81.0137C63.7109 79.2038 62.5749 78.2988 60.3027 78.2988H57.2266ZM73.6523 76.9023L78.3887 91.6387H76.5723L75.1465 86.9609H69.8926L68.4082 91.6387H66.709L71.4453 76.9023H73.6523ZM74.7656 85.6035L73.6719 82.0195C73.3854 81.1016 73.0371 79.8418 72.627 78.2402H72.3242C71.9922 79.627 71.6536 80.8802 71.3086 82L70.2246 85.6035H74.7656ZM91.4648 80.7207L89.7656 81.1602C89.2448 79.1029 88.0501 78.0742 86.1816 78.0742C84.7754 78.0742 83.6784 78.6732 82.8906 79.8711C82.1745 80.9583 81.8164 82.4264 81.8164 84.2754C81.8164 86.3978 82.2624 88.0026 83.1543 89.0898C83.9095 90.0143 84.9121 90.4766 86.1621 90.4766C87.4121 90.4766 88.3724 89.946 89.043 88.8848C89.5768 88.0384 89.8698 86.9544 89.9219 85.6328H86.0254V84.2168H91.5625V91.6973H90.3418L90.1465 89.334C89.7298 90.2194 89.1309 90.8867 88.3496 91.3359C87.666 91.7266 86.8913 91.9219 86.0254 91.9219C84.0853 91.9219 82.5651 91.1699 81.4648 89.666C80.4753 88.3118 79.9805 86.5215 79.9805 84.2949C79.9805 81.7624 80.6445 79.7962 81.9727 78.3965C83.0859 77.2246 84.4824 76.6387 86.1621 76.6387C87.6074 76.6387 88.8086 77.0586 89.7656 77.8984C90.5599 78.6016 91.1263 79.5423 91.4648 80.7207ZM104.688 76.9023V78.3672H97.1484V83.084H102.852V84.5488H97.1484V90.1738H104.824V91.6387H95.4102V76.9023H104.688ZM123.115 76.9023V78.3867H118.496V91.6387H116.738V78.3867H112.158V76.9023H123.115ZM131.016 76.6387C132.962 76.6387 134.489 77.3906 135.596 78.8945C136.598 80.2487 137.1 82.0358 137.1 84.2559C137.1 86.7949 136.452 88.7643 135.156 90.1641C134.069 91.3359 132.689 91.9219 131.016 91.9219C129.082 91.9219 127.559 91.1667 126.445 89.6562C125.443 88.2956 124.941 86.5117 124.941 84.3047C124.941 81.7591 125.592 79.7897 126.895 78.3965C127.982 77.2246 129.355 76.6387 131.016 76.6387ZM131.016 78.0742C129.642 78.0742 128.574 78.6699 127.812 79.8613C127.122 80.9486 126.777 82.4199 126.777 84.2754C126.777 86.3913 127.223 87.9993 128.115 89.0996C128.857 90.0176 129.824 90.4766 131.016 90.4766C132.402 90.4766 133.473 89.8776 134.229 88.6797C134.919 87.599 135.264 86.1309 135.264 84.2754C135.264 82.1465 134.821 80.5352 133.936 79.4414C133.193 78.5299 132.22 78.0742 131.016 78.0742ZM140.449 76.9023H145.352C148.75 76.9023 150.449 78.2663 150.449 80.9941C150.449 82.3939 149.941 83.4648 148.926 84.207C148.021 84.8646 146.781 85.1934 145.205 85.1934H142.168V91.6387H140.449V76.9023ZM142.168 78.2988V83.8359H145.127C147.477 83.8359 148.652 82.8952 148.652 81.0137C148.652 79.2038 147.516 78.2988 145.244 78.2988H142.168Z" fill="white"/>
<path d="M82.6833 56.3501C81.9805 55.6473 81.6292 54.7528 81.6292 53.6667C81.6292 52.5806 81.9805 51.6862 82.6833 50.9834L100.317 33.3501C100.7 32.9667 101.115 32.6946 101.562 32.5336C102.01 32.3751 102.489 32.2959 103 32.2959C103.511 32.2959 104.007 32.3917 104.487 32.5834C104.965 32.7751 105.364 33.0306 105.683 33.3501L123.317 50.9834C124.019 51.6862 124.371 52.5806 124.371 53.6667C124.371 54.7528 124.019 55.6473 123.317 56.3501C122.614 57.0528 121.719 57.4042 120.633 57.4042C119.547 57.4042 118.653 57.0528 117.95 56.3501L103 41.4001L88.05 56.3501C87.3472 57.0528 86.4528 57.4042 85.3666 57.4042C84.2805 57.4042 83.3861 57.0528 82.6833 56.3501Z" fill="white"/>
</svg>
