<svg width="50" height="50" viewBox="0 0 50 50" fill="none" xmlns="http://www.w3.org/2000/svg">
<circle cx="25" cy="25" r="24.5" fill="#6D8A67" stroke="white"/>
<path d="M6.4078 36.8932C8.25246 33.9806 15.8253 35.7767 16.4563 36.8932C14.2719 36.1165 9.27188 36.4078 6.4078 36.8932Z" fill="white"/>
<path d="M27.3787 37.0389C26.602 35.1456 19.369 34.0777 16.7962 37.233C19.8544 37.6214 19.1748 37.767 21.0195 36.8932C25.4855 35.2913 23.4466 36.8932 27.3787 37.0389Z" fill="white"/>
<path d="M18.1068 38.2524C15.9224 37.3787 6.79615 36.7924 5.77673 38.0097C6.84469 41.2622 14.6117 40.1456 16.068 38.6893L15.9224 46.1651C15.9709 46.5534 16.602 46.7476 16.7962 46.3592L17.136 38.6893C17.8641 40.9223 26.7962 40.8738 26.6505 38.2524C25.2913 36.5534 21.3593 37.4757 20.534 38.0097C20.1589 38.2524 18.5437 38.2524 18.1068 38.2524Z" fill="white"/>
<path d="M6.4078 36.8932C8.25246 33.9806 15.8253 35.7767 16.4563 36.8932C14.2719 36.1165 9.27188 36.4078 6.4078 36.8932Z" stroke="white"/>
<path d="M27.3787 37.0389C26.602 35.1456 19.369 34.0777 16.7962 37.233C19.8544 37.6214 19.1748 37.767 21.0195 36.8932C25.4855 35.2913 23.4466 36.8932 27.3787 37.0389Z" stroke="white"/>
<path d="M18.1068 38.2524C15.9224 37.3787 6.79615 36.7924 5.77673 38.0097C6.84469 41.2622 14.6117 40.1456 16.068 38.6893L15.9224 46.1651C15.9709 46.5534 16.602 46.7476 16.7962 46.3592L17.136 38.6893C17.8641 40.9223 26.7962 40.8738 26.6505 38.2524C25.2913 36.5534 21.3593 37.4757 20.534 38.0097C20.1589 38.2524 18.5437 38.2524 18.1068 38.2524Z" stroke="white"/>
<path d="M11.465 20.5825H11.2991L8.97147 15.1166V20.2033L9.82478 20.3313V20.5825H7.65833V20.3313L8.47371 20.2033V14.5999L7.65833 14.4767V14.2254H9.58301L11.6499 19.0608L13.9064 14.2254H15.7268V14.4767L14.9114 14.5999V20.2033L15.7268 20.3313V20.5825H13.1479V20.3313L14.0012 20.2033V15.1166L11.465 20.5825Z" fill="white"/>
<path d="M20.5006 18.3308C20.5006 19.8952 19.8053 20.6774 18.4147 20.6774C17.7447 20.6774 17.2391 20.4767 16.8977 20.0753C16.5564 19.6739 16.3858 19.0924 16.3858 18.3308C16.3858 17.5786 16.5564 17.0034 16.8977 16.6052C17.2391 16.207 17.7574 16.0079 18.4527 16.0079C19.129 16.0079 19.6394 16.2038 19.9839 16.5957C20.3284 16.9844 20.5006 17.5628 20.5006 18.3308ZM19.6473 18.3308C19.6473 17.6481 19.5477 17.1535 19.3486 16.847C19.1495 16.5404 18.8382 16.3871 18.4147 16.3871C18.0007 16.3871 17.7005 16.5341 17.514 16.828C17.3307 17.1219 17.2391 17.6228 17.2391 18.3308C17.2391 19.0482 17.3323 19.557 17.5188 19.8572C17.7084 20.1543 18.007 20.3028 18.4147 20.3028C18.8319 20.3028 19.1416 20.148 19.3439 19.8383C19.5462 19.5285 19.6473 19.026 19.6473 18.3308Z" fill="white"/>
<path d="M25.355 18.3308C25.355 19.8952 24.6597 20.6774 23.2691 20.6774C22.5991 20.6774 22.0934 20.4767 21.7521 20.0753C21.4108 19.6739 21.2401 19.0924 21.2401 18.3308C21.2401 17.5786 21.4108 17.0034 21.7521 16.6052C22.0934 16.207 22.6117 16.0079 23.307 16.0079C23.9834 16.0079 24.4938 16.2038 24.8382 16.5957C25.1827 16.9844 25.355 17.5628 25.355 18.3308ZM24.5017 18.3308C24.5017 17.6481 24.4021 17.1535 24.203 16.847C24.0039 16.5404 23.6926 16.3871 23.2691 16.3871C22.8551 16.3871 22.5549 16.5341 22.3684 16.828C22.1851 17.1219 22.0934 17.6228 22.0934 18.3308C22.0934 19.0482 22.1867 19.557 22.3731 19.8572C22.5628 20.1543 22.8614 20.3028 23.2691 20.3028C23.6863 20.3028 23.996 20.148 24.1983 19.8383C24.4005 19.5285 24.5017 19.026 24.5017 18.3308Z" fill="white"/>
<path d="M27.2607 16.4867C27.504 16.3476 27.7632 16.2338 28.0381 16.1453C28.3131 16.0537 28.5422 16.0079 28.7255 16.0079C29.1111 16.0079 29.4019 16.1201 29.5978 16.3444C29.7937 16.5688 29.8917 16.8944 29.8917 17.321V20.2507L30.4321 20.3692V20.5825H28.5122V20.3692L29.1048 20.2507V17.4063C29.1048 17.144 29.04 16.9386 28.9104 16.7901C28.784 16.6384 28.5865 16.5625 28.3178 16.5625C28.0334 16.5625 27.6842 16.6083 27.2702 16.7V20.2507L27.8722 20.3692V20.5825H25.9475V20.3692L26.4832 20.2507V16.4582L25.9475 16.3397V16.1264H27.218L27.2607 16.4867Z" fill="white"/>
<path d="M8.03757 28.5799H8.34571L8.51163 29.438C8.62857 29.5865 8.82925 29.7177 9.11369 29.8314C9.40128 29.9452 9.68414 30.0021 9.96225 30.0021C10.4047 30.0021 10.7492 29.8899 10.9957 29.6655C11.2454 29.438 11.3702 29.1251 11.3702 28.7269C11.3702 28.4993 11.3212 28.3113 11.2233 28.1628C11.1284 28.0142 11.002 27.8894 10.844 27.7882C10.6891 27.684 10.5122 27.597 10.3131 27.5275C10.114 27.4548 9.90853 27.3821 9.69678 27.3094C9.48819 27.2368 9.28435 27.1562 9.08524 27.0677C8.88614 26.9792 8.70758 26.867 8.54956 26.7311C8.3947 26.5952 8.26828 26.4277 8.17031 26.2286C8.0755 26.0263 8.02809 25.7782 8.02809 25.4843C8.02809 24.9787 8.21772 24.582 8.59696 24.2944C8.97621 24.0068 9.50242 23.863 10.1756 23.863C10.6876 23.863 11.2438 23.931 11.8443 24.0669V25.3895H11.5361L11.3702 24.612C11.0479 24.3782 10.6496 24.2612 10.1756 24.2612C9.75209 24.2612 9.42025 24.3482 9.18006 24.522C8.94303 24.6926 8.82451 24.9297 8.82451 25.2331C8.82451 25.4385 8.87192 25.6092 8.96673 25.745C9.0647 25.8809 9.19112 25.9979 9.34598 26.0959C9.504 26.1907 9.68256 26.2728 9.88166 26.3424C10.0839 26.4119 10.2894 26.4846 10.4979 26.5604C10.7097 26.6331 10.9151 26.7169 11.1142 26.8117C11.3165 26.9033 11.495 27.0218 11.6499 27.1672C11.8079 27.3094 11.9343 27.4848 12.0292 27.6934C12.1271 27.8989 12.1761 28.1533 12.1761 28.4567C12.1761 29.0698 11.9881 29.5454 11.612 29.8836C11.2359 30.2186 10.6939 30.3861 9.98596 30.3861C9.64463 30.3861 9.30173 30.3561 8.95725 30.296C8.61277 30.236 8.30621 30.1538 8.03757 30.0495V28.5799Z" fill="white"/>
<path d="M14.0155 28.049V28.1343C14.0155 28.5704 14.0629 28.9102 14.1577 29.1535C14.2557 29.3937 14.4042 29.577 14.6033 29.7034C14.8056 29.8299 15.0695 29.8931 15.395 29.8931C15.5656 29.8931 15.7679 29.8788 16.0018 29.8504C16.2356 29.822 16.4284 29.7904 16.5801 29.7556V30.0211C16.4284 30.119 16.2214 30.2044 15.9591 30.2771C15.7 30.3497 15.4345 30.3861 15.1627 30.3861C14.4706 30.3861 13.9633 30.1996 13.641 29.8267C13.3218 29.4538 13.1622 28.8549 13.1622 28.03C13.1622 27.2526 13.3249 26.6726 13.6504 26.2902C13.976 25.9078 14.4405 25.7166 15.0442 25.7166C16.1851 25.7166 16.7555 26.3645 16.7555 27.6602V28.049H14.0155ZM15.0442 26.0959C14.7155 26.0959 14.4627 26.2286 14.2857 26.4941C14.1119 26.7595 14.0249 27.1514 14.0249 27.6697H15.9307C15.9307 27.104 15.858 26.7011 15.7126 26.4609C15.5672 26.2175 15.3444 26.0959 15.0442 26.0959Z" fill="white"/>
<path d="M18.3294 28.049V28.1343C18.3294 28.5704 18.3768 28.9102 18.4716 29.1535C18.5696 29.3937 18.7181 29.577 18.9172 29.7034C19.1195 29.8299 19.3834 29.8931 19.7089 29.8931C19.8796 29.8931 20.0818 29.8788 20.3157 29.8504C20.5496 29.822 20.7424 29.7904 20.8941 29.7556V30.0211C20.7424 30.119 20.5354 30.2044 20.273 30.2771C20.0139 30.3497 19.7484 30.3861 19.4766 30.3861C18.7845 30.3861 18.2773 30.1996 17.9549 29.8267C17.6357 29.4538 17.4761 28.8549 17.4761 28.03C17.4761 27.2526 17.6389 26.6726 17.9644 26.2902C18.2899 25.9078 18.7545 25.7166 19.3581 25.7166C20.499 25.7166 21.0695 26.3645 21.0695 27.6602V28.049H18.3294ZM19.3581 26.0959C19.0294 26.0959 18.7766 26.2286 18.5996 26.4941C18.4258 26.7595 18.3389 27.1514 18.3389 27.6697H20.2446C20.2446 27.104 20.1719 26.7011 20.0265 26.4609C19.8812 26.2175 19.6584 26.0959 19.3581 26.0959Z" fill="white"/>
<path d="M24.8382 29.9594C24.4811 30.2439 24.0639 30.3861 23.5867 30.3861C22.37 30.3861 21.7616 29.626 21.7616 28.1059C21.7616 27.3252 21.9338 26.7327 22.2783 26.3281C22.6228 25.9204 23.13 25.7166 23.8001 25.7166C24.1414 25.7166 24.4874 25.7529 24.8382 25.8256C24.8193 25.7213 24.8098 25.459 24.8098 25.0387V23.882L24.0608 23.7682V23.5549H25.5967V29.9594L26.1466 30.078V30.2913H24.8951L24.8382 29.9594ZM22.6149 28.1059C22.6149 28.7063 22.716 29.1551 22.9183 29.4522C23.1206 29.7461 23.4303 29.8931 23.8475 29.8931C24.2046 29.8931 24.5254 29.8314 24.8098 29.7082V26.1859C24.5285 26.1322 24.2077 26.1053 23.8475 26.1053C23.0258 26.1053 22.6149 26.7722 22.6149 28.1059Z" fill="white"/>
<path d="M15.0073 12.1946C14.7474 12.1946 14.5303 12.1448 14.3558 12.0451C14.1814 11.9419 14.0497 11.7923 13.9607 11.5966C13.8717 11.4008 13.8218 11.1605 13.8112 10.8757L14.4893 10.7422C14.4964 10.9095 14.516 11.0572 14.5481 11.1854C14.5836 11.3135 14.6353 11.4132 14.7029 11.4844C14.7741 11.5521 14.8667 11.5859 14.9806 11.5859C15.1087 11.5859 15.1995 11.5485 15.2529 11.4737C15.3063 11.3954 15.333 11.2975 15.333 11.18C15.333 10.9914 15.2903 10.8365 15.2048 10.7155C15.1194 10.5945 15.0055 10.4734 14.8631 10.3524L14.3184 9.8718C14.1654 9.74008 14.0425 9.59413 13.95 9.43393C13.861 9.27018 13.8165 9.06905 13.8165 8.83053C13.8165 8.48879 13.9162 8.22536 14.1155 8.04024C14.3149 7.85513 14.5872 7.76257 14.9325 7.76257C15.1354 7.76257 15.3045 7.79461 15.4398 7.85869C15.5751 7.91921 15.6819 8.00464 15.7602 8.115C15.8421 8.22536 15.9026 8.35173 15.9417 8.49413C15.9809 8.63296 16.0058 8.7807 16.0165 8.93733L15.3437 9.05481C15.3366 8.91953 15.3205 8.7985 15.2956 8.6917C15.2743 8.5849 15.2333 8.50125 15.1728 8.44073C15.1158 8.38021 15.0304 8.34995 14.9165 8.34995C14.799 8.34995 14.7082 8.38911 14.6442 8.46743C14.5836 8.54219 14.5534 8.63652 14.5534 8.75044C14.5534 8.89639 14.5836 9.01743 14.6442 9.11354C14.7047 9.2061 14.7919 9.30222 14.9058 9.40189L15.4451 9.87714C15.6231 10.0267 15.7744 10.2029 15.899 10.4058C16.0272 10.6051 16.0913 10.8472 16.0913 11.132C16.0913 11.3385 16.045 11.5218 15.9524 11.682C15.8634 11.8422 15.737 11.9686 15.5733 12.0611C15.4131 12.1501 15.2244 12.1946 15.0073 12.1946Z" fill="white"/>
<path d="M16.5299 12.1359V9.04947H17.2561V12.1359H16.5299ZM16.5299 8.5582V7.95481H17.2561V8.5582H16.5299Z" fill="white"/>
<path d="M17.833 12.1359V9.04947H18.5592V9.35918C18.6696 9.25238 18.7853 9.16694 18.9063 9.10286C19.0309 9.03523 19.1644 9.00141 19.3068 9.00141C19.435 9.00141 19.5364 9.03345 19.6112 9.09753C19.6859 9.15804 19.7411 9.23992 19.7767 9.34316C19.8123 9.44639 19.8301 9.55853 19.8301 9.67956V12.1359H19.1039V9.82374C19.1039 9.73118 19.0897 9.65998 19.0612 9.61015C19.0327 9.56031 18.9775 9.53539 18.8957 9.53539C18.8458 9.53539 18.7906 9.54963 18.7301 9.57811C18.6732 9.60659 18.6162 9.64219 18.5592 9.6849V12.1359H17.833Z" fill="white"/>
<path d="M21.2913 12.1839C21.0528 12.1839 20.8605 12.1394 20.7146 12.0504C20.5722 11.9579 20.4672 11.8279 20.3995 11.6606C20.3354 11.4898 20.3034 11.2886 20.3034 11.0572V10.1281C20.3034 9.8896 20.3354 9.68668 20.3995 9.51937C20.4672 9.35206 20.574 9.2239 20.7199 9.1349C20.8659 9.04591 21.0563 9.00141 21.2913 9.00141C21.512 9.00141 21.6918 9.03701 21.8306 9.1082C21.973 9.17584 22.0762 9.28086 22.1403 9.42325C22.2044 9.56209 22.2364 9.7383 22.2364 9.95189V10.2082H21.5529V9.93587C21.5529 9.82908 21.544 9.74542 21.5262 9.6849C21.512 9.62083 21.4853 9.57633 21.4461 9.55141C21.407 9.52293 21.3553 9.50869 21.2913 9.50869C21.2272 9.50869 21.1756 9.52649 21.1364 9.56209C21.0973 9.59413 21.0688 9.64752 21.051 9.72228C21.0367 9.79704 21.0296 9.90028 21.0296 10.032V11.164C21.0296 11.3634 21.051 11.4987 21.0937 11.5699C21.1364 11.6375 21.2041 11.6713 21.2966 11.6713C21.3678 11.6713 21.4212 11.6553 21.4568 11.6233C21.496 11.5912 21.5209 11.5449 21.5316 11.4844C21.5458 11.4203 21.5529 11.3438 21.5529 11.2548V10.9237H22.2364V11.2174C22.2364 11.4239 22.2026 11.6001 22.135 11.7461C22.0709 11.892 21.9676 12.0024 21.8252 12.0771C21.6864 12.1483 21.5084 12.1839 21.2913 12.1839Z" fill="white"/>
<path d="M23.6484 12.1839C23.417 12.1839 23.2284 12.1412 23.0824 12.0558C22.9364 11.9668 22.8279 11.8386 22.7567 11.6713C22.689 11.5004 22.6552 11.2957 22.6552 11.0572V10.1281C22.6552 9.88248 22.689 9.676 22.7567 9.50869C22.8279 9.34138 22.9364 9.215 23.0824 9.12956C23.2319 9.04413 23.4206 9.00141 23.6484 9.00141C23.894 9.00141 24.0845 9.04769 24.2198 9.14024C24.3586 9.2328 24.4565 9.36808 24.5135 9.54607C24.574 9.7205 24.6042 9.93409 24.6042 10.1868V10.6247H23.3761V11.2334C23.3761 11.3331 23.385 11.415 23.4028 11.4791C23.4241 11.5432 23.4562 11.5894 23.4989 11.6179C23.5416 11.6464 23.5932 11.6606 23.6538 11.6606C23.7178 11.6606 23.7695 11.6464 23.8086 11.6179C23.8478 11.5859 23.8762 11.5414 23.894 11.4844C23.9118 11.4239 23.9207 11.3491 23.9207 11.2601V11.0038H24.5989V11.2121C24.5989 11.5254 24.5206 11.7656 24.364 11.933C24.2073 12.1003 23.9688 12.1839 23.6484 12.1839ZM23.3761 10.2669H23.9207V9.97325C23.9207 9.86646 23.9118 9.78102 23.894 9.71694C23.8762 9.6493 23.8478 9.60125 23.8086 9.57277C23.7695 9.54073 23.7143 9.52471 23.6431 9.52471C23.579 9.52471 23.5274 9.54073 23.4882 9.57277C23.4491 9.60481 23.4206 9.6582 23.4028 9.73296C23.385 9.80772 23.3761 9.91452 23.3761 10.0534V10.2669Z" fill="white"/>
<path d="M27.015 12.136V11.6127L28.083 9.96266C28.1613 9.84163 28.2343 9.72593 28.3019 9.61558C28.3731 9.50522 28.4301 9.3913 28.4728 9.27383C28.5191 9.15279 28.5422 9.02108 28.5422 8.87868C28.5422 8.71849 28.5137 8.59567 28.4568 8.51024C28.3998 8.4248 28.3108 8.38208 28.1898 8.38208C28.0759 8.38208 27.9869 8.41412 27.9228 8.4782C27.8587 8.54228 27.8142 8.62593 27.7893 8.72917C27.7679 8.83241 27.7572 8.94632 27.7572 9.07092V9.25247H27.031V9.06024C27.031 8.80393 27.0684 8.57965 27.1432 8.38742C27.2215 8.19163 27.3443 8.03855 27.5116 7.9282C27.6789 7.81784 27.8979 7.76266 28.1684 7.76266C28.5386 7.76266 28.8163 7.86234 29.0014 8.06169C29.1865 8.26105 29.2791 8.53872 29.2791 8.8947C29.2791 9.0727 29.2542 9.23467 29.2043 9.38063C29.1545 9.52302 29.0886 9.66008 29.0068 9.79179C28.9249 9.92351 28.8359 10.0588 28.7398 10.1976L27.8534 11.5432H29.167V12.136H27.015Z" fill="white"/>
<path d="M30.8761 12.2C30.6233 12.2 30.4133 12.1466 30.246 12.0398C30.0822 11.9331 29.9576 11.7853 29.8722 11.5966C29.7903 11.408 29.7494 11.1908 29.7494 10.9452V9.0282C29.7494 8.77545 29.7885 8.55474 29.8668 8.36606C29.9487 8.17383 30.0715 8.02431 30.2353 7.91752C30.4026 7.81072 30.6162 7.75732 30.8761 7.75732C31.1359 7.75732 31.3478 7.81072 31.5115 7.91752C31.6788 8.02431 31.8016 8.17383 31.88 8.36606C31.9618 8.55474 32.0028 8.77545 32.0028 9.0282V10.9452C32.0028 11.1908 31.9601 11.408 31.8746 11.5966C31.7927 11.7853 31.6681 11.9331 31.5008 12.0398C31.3371 12.1466 31.1288 12.2 30.8761 12.2ZM30.8761 11.5646C30.9864 11.5646 31.0683 11.5308 31.1217 11.4631C31.1751 11.3955 31.2107 11.3136 31.2285 11.2175C31.2463 11.1214 31.2552 11.0271 31.2552 10.9345V9.03888C31.2552 8.9392 31.2463 8.8413 31.2285 8.74519C31.2143 8.64551 31.1804 8.56185 31.127 8.49422C31.0736 8.42658 30.99 8.39276 30.8761 8.39276C30.7622 8.39276 30.6785 8.42658 30.6251 8.49422C30.5717 8.56185 30.5361 8.64551 30.5183 8.74519C30.5041 8.8413 30.4969 8.9392 30.4969 9.03888V10.9345C30.4969 11.0271 30.5058 11.1214 30.5236 11.2175C30.545 11.3136 30.5824 11.3955 30.6358 11.4631C30.6892 11.5308 30.7693 11.5646 30.8761 11.5646Z" fill="white"/>
<path d="M33.7285 12.2C33.4757 12.2 33.2657 12.1466 33.0984 12.0398C32.9346 11.9331 32.81 11.7853 32.7246 11.5966C32.6427 11.408 32.6018 11.1908 32.6018 10.9452V9.0282C32.6018 8.77545 32.6409 8.55474 32.7193 8.36606C32.8011 8.17383 32.924 8.02431 33.0877 7.91752C33.255 7.81072 33.4686 7.75732 33.7285 7.75732C33.9884 7.75732 34.2002 7.81072 34.3639 7.91752C34.5312 8.02431 34.6541 8.17383 34.7324 8.36606C34.8142 8.55474 34.8552 8.77545 34.8552 9.0282V10.9452C34.8552 11.1908 34.8125 11.408 34.727 11.5966C34.6452 11.7853 34.5206 11.9331 34.3532 12.0398C34.1895 12.1466 33.9812 12.2 33.7285 12.2ZM33.7285 11.5646C33.8388 11.5646 33.9207 11.5308 33.9741 11.4631C34.0275 11.3955 34.0631 11.3136 34.0809 11.2175C34.0987 11.1214 34.1076 11.0271 34.1076 10.9345V9.03888C34.1076 8.9392 34.0987 8.8413 34.0809 8.74519C34.0667 8.64551 34.0329 8.56185 33.9795 8.49422C33.9261 8.42658 33.8424 8.39276 33.7285 8.39276C33.6146 8.39276 33.5309 8.42658 33.4775 8.49422C33.4241 8.56185 33.3885 8.64551 33.3707 8.74519C33.3565 8.8413 33.3494 8.9392 33.3494 9.03888V10.9345C33.3494 11.0271 33.3583 11.1214 33.3761 11.2175C33.3974 11.3136 33.4348 11.3955 33.4882 11.4631C33.5416 11.5308 33.6217 11.5646 33.7285 11.5646Z" fill="white"/>
<path d="M35.3741 12.136V11.6127L36.4421 9.96266C36.5204 9.84163 36.5934 9.72593 36.661 9.61558C36.7322 9.50522 36.7892 9.3913 36.8319 9.27383C36.8782 9.15279 36.9013 9.02108 36.9013 8.87868C36.9013 8.71849 36.8728 8.59567 36.8159 8.51024C36.7589 8.4248 36.6699 8.38208 36.5489 8.38208C36.4349 8.38208 36.346 8.41412 36.2819 8.4782C36.2178 8.54228 36.1733 8.62593 36.1484 8.72917C36.127 8.83241 36.1163 8.94632 36.1163 9.07092V9.25247H35.3901V9.06024C35.3901 8.80393 35.4275 8.57965 35.5023 8.38742C35.5806 8.19163 35.7034 8.03855 35.8707 7.9282C36.038 7.81784 36.257 7.76266 36.5275 7.76266C36.8977 7.76266 37.1754 7.86234 37.3605 8.06169C37.5456 8.26105 37.6382 8.53872 37.6382 8.8947C37.6382 9.0727 37.6133 9.23467 37.5634 9.38063C37.5136 9.52302 37.4477 9.66008 37.3659 9.79179C37.284 9.92351 37.195 10.0588 37.0989 10.1976L36.2125 11.5432H37.526V12.136H35.3741Z" fill="white"/>
<path d="M36.3592 28.0097L40.9223 8.25244C62.4272 33.835 30.2912 53.8835 19.0291 46.8932C24.8058 43.9806 32.8641 35.4855 32.0388 34.7573L25.8738 33.4466C30.9223 31.6505 36.3592 29.1262 36.3592 28.0097Z" fill="white" stroke="white"/>
<path d="M42.0874 29.3204C40.1942 30.3398 38.301 31.068 38.9321 27.767C38.7379 27.1359 37.8156 27.6699 38.0097 27.767C37.4758 30.0971 38.301 32.6214 42.8156 30.2427C42.9612 29.9029 42.6214 29.0329 42.0874 29.3204Z" fill="#6D8A67" stroke="#6D8A67"/>
<path d="M33.5923 40.8252C29.0777 42.1844 31.0195 40 30.6311 39.3204C30.6311 38.8835 29.7088 38.7378 29.7088 39.3204C28.7379 42.4272 32.136 43.1553 34.1263 41.6019C34.1263 41.4077 34.0292 40.8252 33.5923 40.8252Z" fill="#6D8A67" stroke="#6D8A67"/>
</svg>
